<svg xmlns="http://www.w3.org/2000/svg" viewBox="0 0 512 512" width="512" height="512">
    <rect width="512" height="512" rx="100" fill="#0f111a"/>
    <path d="M256,80 C150,80 80,180 80,256 C80,332 150,432 256,432 C362,432 432,332 432,256 C432,180 362,80 256,80 Z" fill="url(#grad)" opacity="0.1"/>
    <path d="M256 120C170 120 120 190 120 256C120 322 170 392 256 392C342 392 392 322 392 256C392 190 342 120 256 120Z" fill="url(#grad)" opacity="0.2"/>
    <path d="M256,160 C190,160 160,210 160,256 C160,302 190,352 256,352 C322,352 352,302 352,256 C352,210 322,160 256,160 Z" fill="none" stroke="url(#grad)" stroke-width="8"/>
    <g transform="translate(176, 176) scale(0.3125)">
        <path d="M416 112c-35.3 0-64 28.7-64 64v160c0 35.3 28.7 64 64 64s64-28.7 64-64V176c0-35.3-28.7-64-64-64zm-160 0c-35.3 0-64 28.7-64 64v160c0 35.3 28.7 64 64 64s64-28.7 64-64V176c0-35.3-28.7-64-64-64zM96 112c-35.3 0-64 28.7-64 64v160c0 35.3 28.7 64 64 64s64-28.7 64-64V176c0-35.3-28.7-64-64-64z" fill="#00ff88"/>
    </g>
    <path d="M220 200 L256 150 L292 200 Z" fill="#4754c4"/>
    <text x="256" y="300" font-family="Arial, sans-serif" font-size="64" font-weight="bold" fill="#ffffff" text-anchor="middle">ECO</text>
    <text x="256" y="340" font-family="Arial, sans-serif" font-size="32" font-weight="bold" fill="#00ff88" text-anchor="middle">SPORTS</text>
    <defs>
        <linearGradient id="grad" x1="0%" y1="0%" x2="100%" y2="100%">
            <stop offset="0%" style="stop-color:#00ff88;stop-opacity:1" />
            <stop offset="100%" style="stop-color:#4754c4;stop-opacity:1" />
        </linearGradient>
    </defs>
</svg>
